<svg width="350" height="233" viewBox="0 0 350 233" fill="none" xmlns="http://www.w3.org/2000/svg">
<path d="M0.5 0.5H349.5V232.5H0.5V0.5Z" fill="#272727" stroke="#FCD54C"/>
<path d="M39.925 41.35C37.3083 41.35 35.1333 40.475 33.4 38.725C31.6833 36.9917 30.825 34.8333 30.825 32.25C30.825 29.65 31.6833 27.4917 33.4 25.775C35.1333 24.025 37.3083 23.15 39.925 23.15C41.5083 23.15 42.9667 23.525 44.3 24.275C45.65 25.0083 46.7 26.0083 47.45 27.275L44.475 29C44.0417 28.2167 43.425 27.6083 42.625 27.175C41.825 26.725 40.925 26.5 39.925 26.5C38.225 26.5 36.85 27.0333 35.8 28.1C34.7667 29.1833 34.25 30.5667 34.25 32.25C34.25 33.9167 34.7667 35.2917 35.8 36.375C36.85 37.4417 38.225 37.975 39.925 37.975C40.925 37.975 41.825 37.7583 42.625 37.325C43.4417 36.875 44.0583 36.2667 44.475 35.5L47.45 37.225C46.7 38.4917 45.65 39.5 44.3 40.25C42.9667 40.9833 41.5083 41.35 39.925 41.35ZM60.1426 39.45C58.8759 40.7167 57.3092 41.35 55.4426 41.35C53.5759 41.35 52.0092 40.7167 50.7426 39.45C49.4759 38.1833 48.8426 36.6167 48.8426 34.75C48.8426 32.9 49.4759 31.3417 50.7426 30.075C52.0259 28.7917 53.5926 28.15 55.4426 28.15C57.2926 28.15 58.8592 28.7917 60.1426 30.075C61.4259 31.3583 62.0676 32.9167 62.0676 34.75C62.0676 36.6 61.4259 38.1667 60.1426 39.45ZM53.0176 37.225C53.6676 37.875 54.4759 38.2 55.4426 38.2C56.4092 38.2 57.2176 37.875 57.8676 37.225C58.5176 36.575 58.8426 35.75 58.8426 34.75C58.8426 33.75 58.5176 32.925 57.8676 32.275C57.2176 31.625 56.4092 31.3 55.4426 31.3C54.4759 31.3 53.6676 31.625 53.0176 32.275C52.3842 32.9417 52.0676 33.7667 52.0676 34.75C52.0676 35.7333 52.3842 36.5583 53.0176 37.225ZM78.1613 28.15C79.5947 28.15 80.7363 28.6167 81.5863 29.55C82.453 30.4833 82.8863 31.7333 82.8863 33.3V41H79.6613V33.525C79.6613 32.775 79.478 32.1917 79.1113 31.775C78.7447 31.3583 78.228 31.15 77.5613 31.15C76.828 31.15 76.253 31.3917 75.8363 31.875C75.4363 32.3583 75.2363 33.0583 75.2363 33.975V41H72.0113V33.525C72.0113 32.775 71.828 32.1917 71.4613 31.775C71.0947 31.3583 70.578 31.15 69.9113 31.15C69.1947 31.15 68.6197 31.4 68.1863 31.9C67.7697 32.3833 67.5613 33.075 67.5613 33.975V41H64.3363V28.5H67.5613V29.825C68.3113 28.7083 69.4697 28.15 71.0363 28.15C72.5863 28.15 73.7197 28.75 74.4363 29.95C75.253 28.75 76.4947 28.15 78.1613 28.15ZM99.4504 28.15C100.884 28.15 102.025 28.6167 102.875 29.55C103.742 30.4833 104.175 31.7333 104.175 33.3V41H100.95V33.525C100.95 32.775 100.767 32.1917 100.4 31.775C100.034 31.3583 99.5171 31.15 98.8504 31.15C98.1171 31.15 97.5421 31.3917 97.1254 31.875C96.7254 32.3583 96.5254 33.0583 96.5254 33.975V41H93.3004V33.525C93.3004 32.775 93.1171 32.1917 92.7504 31.775C92.3837 31.3583 91.8671 31.15 91.2004 31.15C90.4837 31.15 89.9087 31.4 89.4754 31.9C89.0587 32.3833 88.8504 33.075 88.8504 33.975V41H85.6254V28.5H88.8504V29.825C89.6004 28.7083 90.7587 28.15 92.3254 28.15C93.8754 28.15 95.0087 28.75 95.7254 29.95C96.5421 28.75 97.7837 28.15 99.4504 28.15ZM119.064 36.075H109.639C110.056 37.6417 111.231 38.425 113.164 38.425C114.398 38.425 115.331 38.0083 115.964 37.175L118.564 38.675C117.331 40.4583 115.514 41.35 113.114 41.35C111.048 41.35 109.389 40.725 108.139 39.475C106.889 38.225 106.264 36.65 106.264 34.75C106.264 32.8833 106.881 31.3167 108.114 30.05C109.331 28.7833 110.914 28.15 112.864 28.15C114.714 28.15 116.223 28.7833 117.389 30.05C118.589 31.3167 119.189 32.8833 119.189 34.75C119.189 35.1 119.148 35.5417 119.064 36.075ZM109.589 33.575H115.964C115.781 32.7583 115.406 32.1333 114.839 31.7C114.289 31.2667 113.631 31.05 112.864 31.05C111.998 31.05 111.281 31.275 110.714 31.725C110.148 32.1583 109.773 32.775 109.589 33.575ZM124.666 28.5V30.65C124.949 29.8667 125.432 29.275 126.116 28.875C126.799 28.4583 127.582 28.25 128.466 28.25V31.85C127.482 31.7167 126.599 31.9167 125.816 32.45C125.049 32.9667 124.666 33.825 124.666 35.025V41H121.441V28.5H124.666ZM135.838 41.35C133.955 41.35 132.38 40.7167 131.113 39.45C129.863 38.1833 129.238 36.6167 129.238 34.75C129.238 32.8833 129.863 31.3167 131.113 30.05C132.38 28.7833 133.955 28.15 135.838 28.15C137.055 28.15 138.163 28.4417 139.163 29.025C140.163 29.6083 140.921 30.3917 141.438 31.375L138.663 33C138.413 32.4833 138.03 32.075 137.513 31.775C137.013 31.475 136.446 31.325 135.813 31.325C134.846 31.325 134.046 31.65 133.413 32.3C132.78 32.9333 132.463 33.75 132.463 34.75C132.463 35.7167 132.78 36.5333 133.413 37.2C134.046 37.8333 134.846 38.15 135.813 38.15C136.463 38.15 137.038 38.0083 137.538 37.725C138.055 37.425 138.438 37.0167 138.688 36.5L141.488 38.1C140.938 39.1 140.155 39.8917 139.138 40.475C138.138 41.0583 137.038 41.35 135.838 41.35ZM144.794 27C144.26 27 143.794 26.8083 143.394 26.425C143.01 26.025 142.819 25.5583 142.819 25.025C142.819 24.4917 143.01 24.025 143.394 23.625C143.794 23.225 144.26 23.025 144.794 23.025C145.344 23.025 145.81 23.225 146.194 23.625C146.594 24.025 146.794 24.4917 146.794 25.025C146.794 25.5583 146.594 26.025 146.194 26.425C145.81 26.8083 145.344 27 144.794 27ZM146.419 41H143.194V28.5H146.419V41ZM158.871 29.975V28.5H162.096V41H158.871V39.525C157.904 40.7417 156.546 41.35 154.796 41.35C153.129 41.35 151.696 40.7167 150.496 39.45C149.312 38.1667 148.721 36.6 148.721 34.75C148.721 32.9167 149.312 31.3583 150.496 30.075C151.696 28.7917 153.129 28.15 154.796 28.15C156.546 28.15 157.904 28.7583 158.871 29.975ZM152.921 37.3C153.571 37.95 154.396 38.275 155.396 38.275C156.396 38.275 157.221 37.95 157.871 37.3C158.537 36.6333 158.871 35.7833 158.871 34.75C158.871 33.7167 158.537 32.875 157.871 32.225C157.221 31.5583 156.396 31.225 155.396 31.225C154.396 31.225 153.571 31.5583 152.921 32.225C152.271 32.875 151.946 33.7167 151.946 34.75C151.946 35.7833 152.271 36.6333 152.921 37.3ZM168.245 41H165.02V22.75H168.245V41ZM184.722 28.15C186.405 28.15 187.838 28.7917 189.022 30.075C190.222 31.3583 190.822 32.9167 190.822 34.75C190.822 36.6167 190.222 38.1833 189.022 39.45C187.855 40.7167 186.422 41.35 184.722 41.35C182.972 41.35 181.622 40.7417 180.672 39.525V46H177.447V28.5H180.672V29.975C181.622 28.7583 182.972 28.15 184.722 28.15ZM181.647 37.3C182.297 37.95 183.122 38.275 184.122 38.275C185.122 38.275 185.947 37.95 186.597 37.3C187.263 36.6333 187.597 35.7833 187.597 34.75C187.597 33.7167 187.263 32.875 186.597 32.225C185.947 31.5583 185.122 31.225 184.122 31.225C183.122 31.225 182.297 31.5583 181.647 32.225C180.997 32.875 180.672 33.7167 180.672 34.75C180.672 35.7833 180.997 36.6333 181.647 37.3ZM196.321 28.5V30.65C196.604 29.8667 197.088 29.275 197.771 28.875C198.454 28.4583 199.238 28.25 200.121 28.25V31.85C199.138 31.7167 198.254 31.9167 197.471 32.45C196.704 32.9667 196.321 33.825 196.321 35.025V41H193.096V28.5H196.321ZM212.193 39.45C210.927 40.7167 209.36 41.35 207.493 41.35C205.627 41.35 204.06 40.7167 202.793 39.45C201.527 38.1833 200.893 36.6167 200.893 34.75C200.893 32.9 201.527 31.3417 202.793 30.075C204.077 28.7917 205.643 28.15 207.493 28.15C209.343 28.15 210.91 28.7917 212.193 30.075C213.477 31.3583 214.118 32.9167 214.118 34.75C214.118 36.6 213.477 38.1667 212.193 39.45ZM205.068 37.225C205.718 37.875 206.527 38.2 207.493 38.2C208.46 38.2 209.268 37.875 209.918 37.225C210.568 36.575 210.893 35.75 210.893 34.75C210.893 33.75 210.568 32.925 209.918 32.275C209.268 31.625 208.46 31.3 207.493 31.3C206.527 31.3 205.718 31.625 205.068 32.275C204.435 32.9417 204.118 33.7667 204.118 34.75C204.118 35.7333 204.435 36.5583 205.068 37.225ZM223.662 28.15C225.345 28.15 226.779 28.7917 227.962 30.075C229.162 31.3583 229.762 32.9167 229.762 34.75C229.762 36.6167 229.162 38.1833 227.962 39.45C226.795 40.7167 225.362 41.35 223.662 41.35C221.912 41.35 220.562 40.7417 219.612 39.525V46H216.387V28.5H219.612V29.975C220.562 28.7583 221.912 28.15 223.662 28.15ZM220.587 37.3C221.237 37.95 222.062 38.275 223.062 38.275C224.062 38.275 224.887 37.95 225.537 37.3C226.204 36.6333 226.537 35.7833 226.537 34.75C226.537 33.7167 226.204 32.875 225.537 32.225C224.887 31.5583 224.062 31.225 223.062 31.225C222.062 31.225 221.237 31.5583 220.587 32.225C219.937 32.875 219.612 33.7167 219.612 34.75C219.612 35.7833 219.937 36.6333 220.587 37.3ZM244.187 36.075H234.762C235.178 37.6417 236.353 38.425 238.287 38.425C239.52 38.425 240.453 38.0083 241.087 37.175L243.687 38.675C242.453 40.4583 240.637 41.35 238.237 41.35C236.17 41.35 234.512 40.725 233.262 39.475C232.012 38.225 231.387 36.65 231.387 34.75C231.387 32.8833 232.003 31.3167 233.237 30.05C234.453 28.7833 236.037 28.15 237.987 28.15C239.837 28.15 241.345 28.7833 242.512 30.05C243.712 31.3167 244.312 32.8833 244.312 34.75C244.312 35.1 244.27 35.5417 244.187 36.075ZM234.712 33.575H241.087C240.903 32.7583 240.528 32.1333 239.962 31.7C239.412 31.2667 238.753 31.05 237.987 31.05C237.12 31.05 236.403 31.275 235.837 31.725C235.27 32.1583 234.895 32.775 234.712 33.575ZM249.788 28.5V30.65C250.071 29.8667 250.555 29.275 251.238 28.875C251.921 28.4583 252.705 28.25 253.588 28.25V31.85C252.605 31.7167 251.721 31.9167 250.938 32.45C250.171 32.9667 249.788 33.825 249.788 35.025V41H246.563V28.5H249.788ZM262.966 28.5V31.6H260.141V36.8C260.141 37.2333 260.249 37.55 260.466 37.75C260.682 37.95 260.999 38.0667 261.416 38.1C261.832 38.1167 262.349 38.1083 262.966 38.075V41C260.782 41.25 259.224 41.05 258.291 40.4C257.374 39.7333 256.916 38.5333 256.916 36.8V31.6H254.741V28.5H256.916V25.975L260.141 25V28.5H262.966ZM270.883 36.9L273.658 28.5H277.108L272.558 41C271.908 42.8 271.042 44.1 269.958 44.9C268.892 45.7167 267.558 46.0833 265.958 46V43C266.808 43.0167 267.492 42.8333 268.008 42.45C268.525 42.0667 268.933 41.45 269.233 40.6L264.108 28.5H267.633L270.883 36.9ZM33.075 62C32.5417 62 32.075 61.8083 31.675 61.425C31.2917 61.025 31.1 60.5583 31.1 60.025C31.1 59.4917 31.2917 59.025 31.675 58.625C32.075 58.225 32.5417 58.025 33.075 58.025C33.625 58.025 34.0917 58.225 34.475 58.625C34.875 59.025 35.075 59.4917 35.075 60.025C35.075 60.5583 34.875 61.025 34.475 61.425C34.0917 61.8083 33.625 62 33.075 62ZM34.7 76H31.475V63.5H34.7V76ZM44.6018 63.15C45.9851 63.15 47.1101 63.6083 47.9768 64.525C48.8768 65.4583 49.3268 66.725 49.3268 68.325V76H46.1018V68.725C46.1018 67.9083 45.8768 67.275 45.4268 66.825C44.9934 66.375 44.3934 66.15 43.6268 66.15C42.7768 66.15 42.1018 66.4167 41.6018 66.95C41.1184 67.4667 40.8768 68.2333 40.8768 69.25V76H37.6518V63.5H40.8768V64.9C41.6434 63.7333 42.8851 63.15 44.6018 63.15ZM73.4805 76H69.7305L68.6805 72.85H61.7055L60.6555 76H56.9305L63.0555 58.5H67.3305L73.4805 76ZM65.2055 62.475L62.8055 69.625H67.6055L65.2055 62.475ZM82.3047 63.15C83.988 63.15 85.4214 63.7917 86.6047 65.075C87.8047 66.3583 88.4047 67.9167 88.4047 69.75C88.4047 71.6167 87.8047 73.1833 86.6047 74.45C85.438 75.7167 84.0047 76.35 82.3047 76.35C80.5547 76.35 79.2047 75.7417 78.2547 74.525V76H75.0297V58.5H78.2547V64.975C79.2047 63.7583 80.5547 63.15 82.3047 63.15ZM79.2297 72.3C79.8797 72.95 80.7047 73.275 81.7047 73.275C82.7047 73.275 83.5297 72.95 84.1797 72.3C84.8464 71.6333 85.1797 70.7833 85.1797 69.75C85.1797 68.7167 84.8464 67.875 84.1797 67.225C83.5297 66.5583 82.7047 66.225 81.7047 66.225C80.7047 66.225 79.8797 66.5583 79.2297 67.225C78.5797 67.875 78.2547 68.7167 78.2547 69.75C78.2547 70.7833 78.5797 71.6333 79.2297 72.3ZM98.9291 70.25V63.5H102.154V76H98.9291V74.6C98.1624 75.7667 96.9208 76.35 95.2041 76.35C93.8374 76.35 92.7041 75.8917 91.8041 74.975C90.9208 74.0417 90.4791 72.775 90.4791 71.175V63.5H93.7041V70.775C93.7041 71.5917 93.9208 72.225 94.3541 72.675C94.8041 73.125 95.4124 73.35 96.1791 73.35C97.0291 73.35 97.6958 73.0917 98.1791 72.575C98.6791 72.0417 98.9291 71.2667 98.9291 70.25ZM111.508 58.5H118.458C120.858 58.5 122.858 59.3417 124.458 61.025C126.074 62.6917 126.883 64.7667 126.883 67.25C126.883 69.7333 126.074 71.8083 124.458 73.475C122.858 75.1583 120.858 76 118.458 76H111.508V58.5ZM114.958 72.7H118.458C119.974 72.7 121.208 72.2 122.158 71.2C123.108 70.1667 123.583 68.85 123.583 67.25C123.583 65.6333 123.108 64.325 122.158 63.325C121.208 62.3083 119.974 61.8 118.458 61.8H114.958V72.7ZM136.13 63.15C137.513 63.15 138.638 63.6083 139.505 64.525C140.405 65.4583 140.855 66.725 140.855 68.325V76H137.63V68.725C137.63 67.9083 137.405 67.275 136.955 66.825C136.522 66.375 135.922 66.15 135.155 66.15C134.305 66.15 133.63 66.4167 133.13 66.95C132.647 67.4667 132.405 68.2333 132.405 69.25V76H129.18V58.5H132.405V64.9C133.172 63.7333 134.413 63.15 136.13 63.15ZM153.109 64.975V63.5H156.334V76H153.109V74.525C152.142 75.7417 150.784 76.35 149.034 76.35C147.367 76.35 145.934 75.7167 144.734 74.45C143.55 73.1667 142.959 71.6 142.959 69.75C142.959 67.9167 143.55 66.3583 144.734 65.075C145.934 63.7917 147.367 63.15 149.034 63.15C150.784 63.15 152.142 63.7583 153.109 64.975ZM147.159 72.3C147.809 72.95 148.634 73.275 149.634 73.275C150.634 73.275 151.459 72.95 152.109 72.3C152.775 71.6333 153.109 70.7833 153.109 69.75C153.109 68.7167 152.775 67.875 152.109 67.225C151.459 66.5583 150.634 66.225 149.634 66.225C148.634 66.225 147.809 66.5583 147.159 67.225C146.509 67.875 146.184 68.7167 146.184 69.75C146.184 70.7833 146.509 71.6333 147.159 72.3ZM166.533 63.15C168.217 63.15 169.65 63.7917 170.833 65.075C172.033 66.3583 172.633 67.9167 172.633 69.75C172.633 71.6167 172.033 73.1833 170.833 74.45C169.667 75.7167 168.233 76.35 166.533 76.35C164.783 76.35 163.433 75.7417 162.483 74.525V76H159.258V58.5H162.483V64.975C163.433 63.7583 164.783 63.15 166.533 63.15ZM163.458 72.3C164.108 72.95 164.933 73.275 165.933 73.275C166.933 73.275 167.758 72.95 168.408 72.3C169.075 71.6333 169.408 70.7833 169.408 69.75C169.408 68.7167 169.075 67.875 168.408 67.225C167.758 66.5583 166.933 66.225 165.933 66.225C164.933 66.225 164.108 66.5583 163.458 67.225C162.808 67.875 162.483 68.7167 162.483 69.75C162.483 70.7833 162.808 71.6333 163.458 72.3ZM176.508 62C175.974 62 175.508 61.8083 175.108 61.425C174.724 61.025 174.533 60.5583 174.533 60.025C174.533 59.4917 174.724 59.025 175.108 58.625C175.508 58.225 175.974 58.025 176.508 58.025C177.058 58.025 177.524 58.225 177.908 58.625C178.308 59.025 178.508 59.4917 178.508 60.025C178.508 60.5583 178.308 61.025 177.908 61.425C177.524 61.8083 177.058 62 176.508 62ZM178.133 76H174.908V63.5H178.133V76Z" fill="white"/>
<path d="M31.28 127V115.8H32.4V127H31.28ZM38.5515 118.808C39.5115 118.808 40.2742 119.107 40.8395 119.704C41.4048 120.291 41.6875 121.085 41.6875 122.088V127H40.6315V122.088C40.6315 121.373 40.4395 120.819 40.0555 120.424C39.6822 120.029 39.1488 119.832 38.4555 119.832C37.6555 119.832 37.0208 120.083 36.5515 120.584C36.0928 121.085 35.8635 121.827 35.8635 122.808V127H34.8075V119H35.8635V120.248C36.4608 119.288 37.3568 118.808 38.5515 118.808ZM47.8894 115.8H52.2094C53.7347 115.8 54.9934 116.344 55.9854 117.432C56.988 118.499 57.4894 119.821 57.4894 121.4C57.4894 122.979 56.988 124.307 55.9854 125.384C54.9934 126.461 53.7347 127 52.2094 127H47.8894V115.8ZM49.0094 125.944H52.2094C53.436 125.944 54.4387 125.507 55.2174 124.632C56.0067 123.747 56.4014 122.669 56.4014 121.4C56.4014 120.131 56.0067 119.053 55.2174 118.168C54.4387 117.293 53.436 116.856 52.2094 116.856H49.0094V125.944ZM64.9551 123.192V119H66.0111V127H64.9551V125.752C64.3578 126.712 63.4618 127.192 62.2671 127.192C61.3071 127.192 60.5445 126.899 59.9791 126.312C59.4138 125.715 59.1311 124.915 59.1311 123.912V119H60.1871V123.912C60.1871 124.627 60.3738 125.181 60.7471 125.576C61.1311 125.971 61.6698 126.168 62.3631 126.168C63.1631 126.168 63.7925 125.917 64.2511 125.416C64.7205 124.915 64.9551 124.173 64.9551 123.192ZM72.533 118.808C73.6743 118.808 74.645 119.213 75.445 120.024C76.2557 120.835 76.661 121.827 76.661 123C76.661 124.173 76.2557 125.165 75.445 125.976C74.645 126.787 73.6743 127.192 72.533 127.192C71.1143 127.192 70.037 126.605 69.301 125.432V127H68.245V115.8H69.301V120.568C70.037 119.395 71.1143 118.808 72.533 118.808ZM70.213 125.256C70.821 125.864 71.5677 126.168 72.453 126.168C73.3383 126.168 74.085 125.864 74.693 125.256C75.301 124.627 75.605 123.875 75.605 123C75.605 122.115 75.301 121.368 74.693 120.76C74.085 120.141 73.3383 119.832 72.453 119.832C71.5677 119.832 70.821 120.141 70.213 120.76C69.605 121.368 69.301 122.115 69.301 123C69.301 123.875 69.605 124.627 70.213 125.256ZM85.2969 120.568V119H86.3529V127H85.2969V125.432C84.5609 126.605 83.4835 127.192 82.0649 127.192C80.9235 127.192 79.9475 126.787 79.1369 125.976C78.3369 125.165 77.9369 124.173 77.9369 123C77.9369 121.827 78.3369 120.835 79.1369 120.024C79.9475 119.213 80.9235 118.808 82.0649 118.808C83.4835 118.808 84.5609 119.395 85.2969 120.568ZM79.9049 125.256C80.5129 125.864 81.2595 126.168 82.1449 126.168C83.0302 126.168 83.7769 125.864 84.3849 125.256C84.9929 124.627 85.2969 123.875 85.2969 123C85.2969 122.115 84.9929 121.368 84.3849 120.76C83.7769 120.141 83.0302 119.832 82.1449 119.832C81.2595 119.832 80.5129 120.141 79.9049 120.76C79.2969 121.368 78.9929 122.115 78.9929 123C78.9929 123.875 79.2969 124.627 79.9049 125.256ZM89.8848 116.536C89.8848 116.749 89.8101 116.931 89.6608 117.08C89.5114 117.229 89.3301 117.304 89.1168 117.304C88.9034 117.304 88.7221 117.229 88.5728 117.08C88.4234 116.931 88.3488 116.749 88.3488 116.536C88.3488 116.323 88.4234 116.141 88.5728 115.992C88.7221 115.843 88.9034 115.768 89.1168 115.768C89.3301 115.768 89.5114 115.843 89.6608 115.992C89.8101 116.141 89.8848 116.323 89.8848 116.536ZM89.6448 127H88.5888V119H89.6448V127ZM92.3656 125.64H93.6456L92.6856 129.24H91.7256L92.3656 125.64ZM103.969 119V120.024H101.665V124.872C101.665 125.309 101.751 125.624 101.921 125.816C102.092 125.997 102.348 126.093 102.689 126.104C103.031 126.104 103.457 126.093 103.969 126.072V127C102.828 127.171 101.98 127.091 101.425 126.76C100.881 126.419 100.609 125.789 100.609 124.872V120.024H98.9294V119H100.609V117.08L101.665 116.76V119H103.969ZM109.473 118.808C110.433 118.808 111.196 119.107 111.761 119.704C112.327 120.291 112.609 121.085 112.609 122.088V127H111.553V122.088C111.553 121.373 111.361 120.819 110.977 120.424C110.604 120.029 110.071 119.832 109.377 119.832C108.577 119.832 107.943 120.083 107.473 120.584C107.015 121.085 106.785 121.827 106.785 122.808V127H105.729V115.8H106.785V120.248C107.383 119.288 108.279 118.808 109.473 118.808ZM118.347 118.808C119.542 118.808 120.497 119.229 121.211 120.072C121.947 120.904 122.315 121.891 122.315 123.032C122.315 123.085 122.305 123.251 122.283 123.528H115.259C115.366 124.328 115.707 124.968 116.283 125.448C116.859 125.928 117.579 126.168 118.443 126.168C119.659 126.168 120.518 125.715 121.019 124.808L121.947 125.352C121.595 125.928 121.11 126.381 120.491 126.712C119.883 127.032 119.195 127.192 118.427 127.192C117.169 127.192 116.145 126.797 115.355 126.008C114.566 125.219 114.171 124.216 114.171 123C114.171 121.795 114.561 120.797 115.339 120.008C116.118 119.208 117.121 118.808 118.347 118.808ZM118.347 119.832C117.515 119.832 116.817 120.077 116.251 120.568C115.697 121.059 115.366 121.704 115.259 122.504H121.227C121.11 121.651 120.785 120.995 120.251 120.536C119.697 120.067 119.062 119.832 118.347 119.832ZM129.691 119H134.011V127H132.955V120.024H129.691V127H128.635V120.024H127.275V119H128.635V118.68C128.635 116.632 129.755 115.608 131.995 115.608C132.443 115.608 132.955 115.672 133.531 115.8V116.76C132.998 116.675 132.486 116.632 131.995 116.632C131.184 116.632 130.598 116.792 130.235 117.112C129.872 117.421 129.691 117.944 129.691 118.68V119ZM139.989 118.808C140.949 118.808 141.712 119.107 142.277 119.704C142.842 120.291 143.125 121.085 143.125 122.088V127H142.069V122.088C142.069 121.373 141.877 120.819 141.493 120.424C141.12 120.029 140.586 119.832 139.893 119.832C139.093 119.832 138.458 120.083 137.989 120.584C137.53 121.085 137.301 121.827 137.301 122.808V127H136.245V119H137.301V120.248C137.898 119.288 138.794 118.808 139.989 118.808ZM152.047 120.568V119H153.103V127H152.047V125.432C151.311 126.605 150.234 127.192 148.815 127.192C147.674 127.192 146.698 126.787 145.887 125.976C145.087 125.165 144.687 124.173 144.687 123C144.687 121.827 145.087 120.835 145.887 120.024C146.698 119.213 147.674 118.808 148.815 118.808C150.234 118.808 151.311 119.395 152.047 120.568ZM146.655 125.256C147.263 125.864 148.01 126.168 148.895 126.168C149.78 126.168 150.527 125.864 151.135 125.256C151.743 124.627 152.047 123.875 152.047 123C152.047 122.115 151.743 121.368 151.135 120.76C150.527 120.141 149.78 119.832 148.895 119.832C148.01 119.832 147.263 120.141 146.655 120.76C146.047 121.368 145.743 122.115 145.743 123C145.743 123.875 146.047 124.627 146.655 125.256ZM156.395 127H155.339V115.32H156.395V127ZM163.468 121.096C163.468 121.715 164.017 122.168 165.116 122.456C165.425 122.531 165.628 122.584 165.724 122.616C165.82 122.637 166.006 122.696 166.284 122.792C166.572 122.877 166.769 122.952 166.876 123.016C166.993 123.08 167.153 123.181 167.356 123.32C167.558 123.448 167.702 123.581 167.788 123.72C167.873 123.848 167.953 124.019 168.028 124.232C168.102 124.435 168.14 124.653 168.14 124.888C168.14 125.571 167.868 126.125 167.324 126.552C166.801 126.979 166.108 127.192 165.244 127.192C164.497 127.192 163.852 127.027 163.308 126.696C162.764 126.355 162.38 125.907 162.156 125.352L163.052 124.824C163.201 125.24 163.468 125.571 163.852 125.816C164.246 126.051 164.71 126.168 165.244 126.168C165.788 126.168 166.23 126.061 166.572 125.848C166.913 125.635 167.084 125.315 167.084 124.888C167.084 124.269 166.534 123.816 165.436 123.528C165.126 123.453 164.924 123.405 164.828 123.384C164.732 123.352 164.54 123.293 164.252 123.208C163.974 123.112 163.777 123.032 163.66 122.968C163.553 122.904 163.398 122.808 163.196 122.68C162.993 122.541 162.849 122.408 162.764 122.28C162.678 122.141 162.598 121.971 162.524 121.768C162.449 121.555 162.412 121.331 162.412 121.096C162.412 120.445 162.668 119.901 163.18 119.464C163.713 119.027 164.369 118.808 165.148 118.808C165.788 118.808 166.353 118.952 166.844 119.24C167.345 119.528 167.713 119.928 167.948 120.44L167.068 120.952C166.769 120.205 166.129 119.832 165.148 119.832C164.668 119.832 164.268 119.944 163.948 120.168C163.628 120.392 163.468 120.701 163.468 121.096ZM173.829 119V120.024H171.525V124.872C171.525 125.309 171.61 125.624 171.781 125.816C171.951 125.997 172.207 126.093 172.549 126.104C172.89 126.104 173.317 126.093 173.829 126.072V127C172.687 127.171 171.839 127.091 171.285 126.76C170.741 126.419 170.469 125.789 170.469 124.872V120.024H168.789V119H170.469V117.08L171.525 116.76V119H173.829ZM181.984 120.568V119H183.04V127H181.984V125.432C181.248 126.605 180.171 127.192 178.752 127.192C177.611 127.192 176.635 126.787 175.824 125.976C175.024 125.165 174.624 124.173 174.624 123C174.624 121.827 175.024 120.835 175.824 120.024C176.635 119.213 177.611 118.808 178.752 118.808C180.171 118.808 181.248 119.395 181.984 120.568ZM176.592 125.256C177.2 125.864 177.947 126.168 178.832 126.168C179.718 126.168 180.464 125.864 181.072 125.256C181.68 124.627 181.984 123.875 181.984 123C181.984 122.115 181.68 121.368 181.072 120.76C180.464 120.141 179.718 119.832 178.832 119.832C177.947 119.832 177.2 120.141 176.592 120.76C175.984 121.368 175.68 122.115 175.68 123C175.68 123.875 175.984 124.627 176.592 125.256ZM189.516 119V120.024H187.212V124.872C187.212 125.309 187.298 125.624 187.468 125.816C187.639 125.997 187.895 126.093 188.236 126.104C188.578 126.104 189.004 126.093 189.516 126.072V127C188.375 127.171 187.527 127.091 186.972 126.76C186.428 126.419 186.156 125.789 186.156 124.872V120.024H184.476V119H186.156V117.08L187.212 116.76V119H189.516ZM192.572 116.536C192.572 116.749 192.498 116.931 192.348 117.08C192.199 117.229 192.018 117.304 191.804 117.304C191.591 117.304 191.41 117.229 191.26 117.08C191.111 116.931 191.036 116.749 191.036 116.536C191.036 116.323 191.111 116.141 191.26 115.992C191.41 115.843 191.591 115.768 191.804 115.768C192.018 115.768 192.199 115.843 192.348 115.992C192.498 116.141 192.572 116.323 192.572 116.536ZM192.332 127H191.276V119H192.332V127ZM195.405 121.096C195.405 121.715 195.954 122.168 197.053 122.456C197.362 122.531 197.565 122.584 197.661 122.616C197.757 122.637 197.944 122.696 198.221 122.792C198.509 122.877 198.706 122.952 198.813 123.016C198.93 123.08 199.09 123.181 199.293 123.32C199.496 123.448 199.64 123.581 199.725 123.72C199.81 123.848 199.89 124.019 199.965 124.232C200.04 124.435 200.077 124.653 200.077 124.888C200.077 125.571 199.805 126.125 199.261 126.552C198.738 126.979 198.045 127.192 197.181 127.192C196.434 127.192 195.789 127.027 195.245 126.696C194.701 126.355 194.317 125.907 194.093 125.352L194.989 124.824C195.138 125.24 195.405 125.571 195.789 125.816C196.184 126.051 196.648 126.168 197.181 126.168C197.725 126.168 198.168 126.061 198.509 125.848C198.85 125.635 199.021 125.315 199.021 124.888C199.021 124.269 198.472 123.816 197.373 123.528C197.064 123.453 196.861 123.405 196.765 123.384C196.669 123.352 196.477 123.293 196.189 123.208C195.912 123.112 195.714 123.032 195.597 122.968C195.49 122.904 195.336 122.808 195.133 122.68C194.93 122.541 194.786 122.408 194.701 122.28C194.616 122.141 194.536 121.971 194.461 121.768C194.386 121.555 194.349 121.331 194.349 121.096C194.349 120.445 194.605 119.901 195.117 119.464C195.65 119.027 196.306 118.808 197.085 118.808C197.725 118.808 198.29 118.952 198.781 119.24C199.282 119.528 199.65 119.928 199.885 120.44L199.005 120.952C198.706 120.205 198.066 119.832 197.085 119.832C196.605 119.832 196.205 119.944 195.885 120.168C195.565 120.392 195.405 120.701 195.405 121.096ZM205.766 119V120.024H203.462V124.872C203.462 125.309 203.548 125.624 203.718 125.816C203.889 125.997 204.145 126.093 204.486 126.104C204.828 126.104 205.254 126.093 205.766 126.072V127C204.625 127.171 203.777 127.091 203.222 126.76C202.678 126.419 202.406 125.789 202.406 124.872V120.024H200.726V119H202.406V117.08L203.462 116.76V119H205.766ZM208.822 116.536C208.822 116.749 208.748 116.931 208.598 117.08C208.449 117.229 208.268 117.304 208.054 117.304C207.841 117.304 207.66 117.229 207.51 117.08C207.361 116.931 207.286 116.749 207.286 116.536C207.286 116.323 207.361 116.141 207.51 115.992C207.66 115.843 207.841 115.768 208.054 115.768C208.268 115.768 208.449 115.843 208.598 115.992C208.748 116.141 208.822 116.323 208.822 116.536ZM208.582 127H207.526V119H208.582V127ZM214.551 127.192C213.346 127.192 212.343 126.792 211.543 125.992C210.743 125.171 210.343 124.173 210.343 123C210.343 121.816 210.743 120.824 211.543 120.024C212.343 119.213 213.346 118.808 214.551 118.808C215.34 118.808 216.05 119 216.679 119.384C217.308 119.757 217.767 120.264 218.055 120.904L217.191 121.4C216.978 120.92 216.631 120.541 216.151 120.264C215.682 119.976 215.148 119.832 214.551 119.832C213.666 119.832 212.919 120.141 212.311 120.76C211.703 121.368 211.399 122.115 211.399 123C211.399 123.875 211.703 124.627 212.311 125.256C212.919 125.864 213.666 126.168 214.551 126.168C215.138 126.168 215.666 126.029 216.135 125.752C216.615 125.475 216.988 125.091 217.255 124.6L218.135 125.112C217.804 125.752 217.319 126.259 216.679 126.632C216.039 127.005 215.33 127.192 214.551 127.192ZM220.405 121.096C220.405 121.715 220.954 122.168 222.053 122.456C222.362 122.531 222.565 122.584 222.661 122.616C222.757 122.637 222.944 122.696 223.221 122.792C223.509 122.877 223.706 122.952 223.813 123.016C223.93 123.08 224.09 123.181 224.293 123.32C224.496 123.448 224.64 123.581 224.725 123.72C224.81 123.848 224.89 124.019 224.965 124.232C225.04 124.435 225.077 124.653 225.077 124.888C225.077 125.571 224.805 126.125 224.261 126.552C223.738 126.979 223.045 127.192 222.181 127.192C221.434 127.192 220.789 127.027 220.245 126.696C219.701 126.355 219.317 125.907 219.093 125.352L219.989 124.824C220.138 125.24 220.405 125.571 220.789 125.816C221.184 126.051 221.648 126.168 222.181 126.168C222.725 126.168 223.168 126.061 223.509 125.848C223.85 125.635 224.021 125.315 224.021 124.888C224.021 124.269 223.472 123.816 222.373 123.528C222.064 123.453 221.861 123.405 221.765 123.384C221.669 123.352 221.477 123.293 221.189 123.208C220.912 123.112 220.714 123.032 220.597 122.968C220.49 122.904 220.336 122.808 220.133 122.68C219.93 122.541 219.786 122.408 219.701 122.28C219.616 122.141 219.536 121.971 219.461 121.768C219.386 121.555 219.349 121.331 219.349 121.096C219.349 120.445 219.605 119.901 220.117 119.464C220.65 119.027 221.306 118.808 222.085 118.808C222.725 118.808 223.29 118.952 223.781 119.24C224.282 119.528 224.65 119.928 224.885 120.44L224.005 120.952C223.706 120.205 223.066 119.832 222.085 119.832C221.605 119.832 221.205 119.944 220.885 120.168C220.565 120.392 220.405 120.701 220.405 121.096ZM237.543 125.992C236.721 126.792 235.729 127.192 234.567 127.192C233.383 127.192 232.385 126.792 231.575 125.992C230.764 125.181 230.359 124.184 230.359 123C230.359 121.816 230.764 120.824 231.575 120.024C232.385 119.213 233.383 118.808 234.567 118.808C235.74 118.808 236.732 119.213 237.543 120.024C238.364 120.824 238.775 121.816 238.775 123C238.775 124.173 238.364 125.171 237.543 125.992ZM232.327 125.256C232.935 125.864 233.681 126.168 234.567 126.168C235.452 126.168 236.199 125.864 236.807 125.256C237.415 124.627 237.719 123.875 237.719 123C237.719 122.115 237.415 121.368 236.807 120.76C236.199 120.141 235.452 119.832 234.567 119.832C233.681 119.832 232.935 120.141 232.327 120.76C231.719 121.368 231.415 122.115 231.415 123C231.415 123.875 231.719 124.627 232.327 125.256ZM244.229 115.608V116.632C243.451 116.568 242.869 116.701 242.485 117.032C242.112 117.363 241.925 117.912 241.925 118.68V119H244.229V120.024H241.925V127H240.869V120.024H239.509V119H240.869V118.68C240.869 117.624 241.157 116.829 241.733 116.296C242.32 115.763 243.152 115.533 244.229 115.608ZM256.234 120.568V119H257.29V127H256.234V125.432C255.498 126.605 254.421 127.192 253.002 127.192C251.861 127.192 250.885 126.787 250.074 125.976C249.274 125.165 248.874 124.173 248.874 123C248.874 121.827 249.274 120.835 250.074 120.024C250.885 119.213 251.861 118.808 253.002 118.808C254.421 118.808 255.498 119.395 256.234 120.568ZM250.842 125.256C251.45 125.864 252.197 126.168 253.082 126.168C253.968 126.168 254.714 125.864 255.322 125.256C255.93 124.627 256.234 123.875 256.234 123C256.234 122.115 255.93 121.368 255.322 120.76C254.714 120.141 253.968 119.832 253.082 119.832C252.197 119.832 251.45 120.141 250.842 120.76C250.234 121.368 249.93 122.115 249.93 123C249.93 123.875 250.234 124.627 250.842 125.256ZM260.582 127H259.526V115.32H260.582V127ZM263.879 127H262.823V115.32H263.879V127ZM35.36 145V146.024H33.056V150.872C33.056 151.309 33.1413 151.624 33.312 151.816C33.4827 151.997 33.7387 152.093 34.08 152.104C34.4213 152.104 34.848 152.093 35.36 152.072V153C34.2187 153.171 33.3707 153.091 32.816 152.76C32.272 152.419 32 151.789 32 150.872V146.024H30.32V145H32V143.08L33.056 142.76V145H35.36ZM38.176 145V146.328C38.6667 145.357 39.5093 144.872 40.704 144.872V145.896C39.936 145.896 39.3227 146.12 38.864 146.568C38.4053 147.005 38.176 147.667 38.176 148.552V153H37.12V145H38.176ZM48.5469 146.568V145H49.6029V153H48.5469V151.432C47.8109 152.605 46.7335 153.192 45.3149 153.192C44.1735 153.192 43.1975 152.787 42.3869 151.976C41.5869 151.165 41.1869 150.173 41.1869 149C41.1869 147.827 41.5869 146.835 42.3869 146.024C43.1975 145.213 44.1735 144.808 45.3149 144.808C46.7335 144.808 47.8109 145.395 48.5469 146.568ZM43.1549 151.256C43.7629 151.864 44.5095 152.168 45.3949 152.168C46.2802 152.168 47.0269 151.864 47.6349 151.256C48.2429 150.627 48.5469 149.875 48.5469 149C48.5469 148.115 48.2429 147.368 47.6349 146.76C47.0269 146.141 46.2802 145.832 45.3949 145.832C44.5095 145.832 43.7629 146.141 43.1549 146.76C42.5469 147.368 42.2429 148.115 42.2429 149C42.2429 149.875 42.5469 150.627 43.1549 151.256ZM55.5828 144.808C56.5428 144.808 57.3054 145.107 57.8708 145.704C58.4361 146.291 58.7188 147.085 58.7188 148.088V153H57.6628V148.088C57.6628 147.373 57.4708 146.819 57.0868 146.424C56.7134 146.029 56.1801 145.832 55.4868 145.832C54.6868 145.832 54.0521 146.083 53.5828 146.584C53.1241 147.085 52.8948 147.827 52.8948 148.808V153H51.8388V145H52.8948V146.248C53.4921 145.288 54.3881 144.808 55.5828 144.808ZM61.5926 147.096C61.5926 147.715 62.142 148.168 63.2406 148.456C63.55 148.531 63.7526 148.584 63.8486 148.616C63.9446 148.637 64.1313 148.696 64.4086 148.792C64.6966 148.877 64.894 148.952 65.0006 149.016C65.118 149.08 65.278 149.181 65.4806 149.32C65.6833 149.448 65.8273 149.581 65.9126 149.72C65.998 149.848 66.078 150.019 66.1526 150.232C66.2273 150.435 66.2646 150.653 66.2646 150.888C66.2646 151.571 65.9926 152.125 65.4486 152.552C64.926 152.979 64.2326 153.192 63.3686 153.192C62.622 153.192 61.9766 153.027 61.4326 152.696C60.8886 152.355 60.5046 151.907 60.2806 151.352L61.1766 150.824C61.326 151.24 61.5926 151.571 61.9766 151.816C62.3713 152.051 62.8353 152.168 63.3686 152.168C63.9126 152.168 64.3553 152.061 64.6966 151.848C65.038 151.635 65.2086 151.315 65.2086 150.888C65.2086 150.269 64.6593 149.816 63.5606 149.528C63.2513 149.453 63.0486 149.405 62.9526 149.384C62.8566 149.352 62.6646 149.293 62.3766 149.208C62.0993 149.112 61.902 149.032 61.7846 148.968C61.678 148.904 61.5233 148.808 61.3206 148.68C61.118 148.541 60.974 148.408 60.8886 148.28C60.8033 148.141 60.7233 147.971 60.6486 147.768C60.574 147.555 60.5366 147.331 60.5366 147.096C60.5366 146.445 60.7926 145.901 61.3046 145.464C61.838 145.027 62.494 144.808 63.2726 144.808C63.9126 144.808 64.478 144.952 64.9686 145.24C65.47 145.528 65.838 145.928 66.0726 146.44L65.1926 146.952C64.894 146.205 64.254 145.832 63.2726 145.832C62.7926 145.832 62.3926 145.944 62.0726 146.168C61.7526 146.392 61.5926 146.701 61.5926 147.096ZM74.6719 146.568V145H75.7279V153H74.6719V151.432C73.9359 152.605 72.8585 153.192 71.4399 153.192C70.2985 153.192 69.3225 152.787 68.5119 151.976C67.7119 151.165 67.3119 150.173 67.3119 149C67.3119 147.827 67.7119 146.835 68.5119 146.024C69.3225 145.213 70.2985 144.808 71.4399 144.808C72.8585 144.808 73.9359 145.395 74.6719 146.568ZM69.2799 151.256C69.8879 151.864 70.6345 152.168 71.5199 152.168C72.4052 152.168 73.1519 151.864 73.7599 151.256C74.3679 150.627 74.6719 149.875 74.6719 149C74.6719 148.115 74.3679 147.368 73.7599 146.76C73.1519 146.141 72.4052 145.832 71.5199 145.832C70.6345 145.832 69.8879 146.141 69.2799 146.76C68.6719 147.368 68.3679 148.115 68.3679 149C68.3679 149.875 68.6719 150.627 69.2799 151.256ZM81.6918 153.192C80.4864 153.192 79.4838 152.792 78.6838 151.992C77.8838 151.171 77.4838 150.173 77.4838 149C77.4838 147.816 77.8838 146.824 78.6838 146.024C79.4838 145.213 80.4864 144.808 81.6918 144.808C82.4811 144.808 83.1904 145 83.8198 145.384C84.4491 145.757 84.9078 146.264 85.1958 146.904L84.3318 147.4C84.1184 146.92 83.7718 146.541 83.2918 146.264C82.8224 145.976 82.2891 145.832 81.6918 145.832C80.8064 145.832 80.0598 146.141 79.4518 146.76C78.8438 147.368 78.5398 148.115 78.5398 149C78.5398 149.875 78.8438 150.627 79.4518 151.256C80.0598 151.864 80.8064 152.168 81.6918 152.168C82.2784 152.168 82.8064 152.029 83.2758 151.752C83.7558 151.475 84.1291 151.091 84.3958 150.6L85.2758 151.112C84.9451 151.752 84.4598 152.259 83.8198 152.632C83.1798 153.005 82.4704 153.192 81.6918 153.192ZM91.0319 145V146.024H88.7279V150.872C88.7279 151.309 88.8132 151.624 88.9839 151.816C89.1545 151.997 89.4105 152.093 89.7519 152.104C90.0932 152.104 90.5199 152.093 91.0319 152.072V153C89.8905 153.171 89.0425 153.091 88.4879 152.76C87.9439 152.419 87.6719 151.789 87.6719 150.872V146.024H85.9919V145H87.6719V143.08L88.7279 142.76V145H91.0319ZM94.0879 142.536C94.0879 142.749 94.0132 142.931 93.8639 143.08C93.7145 143.229 93.5332 143.304 93.3199 143.304C93.1065 143.304 92.9252 143.229 92.7759 143.08C92.6265 142.931 92.5519 142.749 92.5519 142.536C92.5519 142.323 92.6265 142.141 92.7759 141.992C92.9252 141.843 93.1065 141.768 93.3199 141.768C93.5332 141.768 93.7145 141.843 93.8639 141.992C94.0132 142.141 94.0879 142.323 94.0879 142.536ZM93.8479 153H92.7919V145H93.8479V153ZM102.793 151.992C101.971 152.792 100.979 153.192 99.8168 153.192C98.6328 153.192 97.6354 152.792 96.8248 151.992C96.0141 151.181 95.6088 150.184 95.6088 149C95.6088 147.816 96.0141 146.824 96.8248 146.024C97.6354 145.213 98.6328 144.808 99.8168 144.808C100.99 144.808 101.982 145.213 102.793 146.024C103.614 146.824 104.025 147.816 104.025 149C104.025 150.173 103.614 151.171 102.793 151.992ZM97.5768 151.256C98.1848 151.864 98.9314 152.168 99.8168 152.168C100.702 152.168 101.449 151.864 102.057 151.256C102.665 150.627 102.969 149.875 102.969 149C102.969 148.115 102.665 147.368 102.057 146.76C101.449 146.141 100.702 145.832 99.8168 145.832C98.9314 145.832 98.1848 146.141 97.5768 146.76C96.9688 147.368 96.6648 148.115 96.6648 149C96.6648 149.875 96.9688 150.627 97.5768 151.256ZM109.536 144.808C110.496 144.808 111.259 145.107 111.824 145.704C112.389 146.291 112.672 147.085 112.672 148.088V153H111.616V148.088C111.616 147.373 111.424 146.819 111.04 146.424C110.667 146.029 110.133 145.832 109.44 145.832C108.64 145.832 108.005 146.083 107.536 146.584C107.077 147.085 106.848 147.827 106.848 148.808V153H105.792V145H106.848V146.248C107.445 145.288 108.341 144.808 109.536 144.808ZM115.546 147.096C115.546 147.715 116.095 148.168 117.194 148.456C117.503 148.531 117.706 148.584 117.802 148.616C117.898 148.637 118.084 148.696 118.362 148.792C118.65 148.877 118.847 148.952 118.954 149.016C119.071 149.08 119.231 149.181 119.434 149.32C119.636 149.448 119.78 149.581 119.866 149.72C119.951 149.848 120.031 150.019 120.106 150.232C120.18 150.435 120.218 150.653 120.218 150.888C120.218 151.571 119.946 152.125 119.402 152.552C118.879 152.979 118.186 153.192 117.322 153.192C116.575 153.192 115.93 153.027 115.386 152.696C114.842 152.355 114.458 151.907 114.234 151.352L115.13 150.824C115.279 151.24 115.546 151.571 115.93 151.816C116.324 152.051 116.788 152.168 117.322 152.168C117.866 152.168 118.308 152.061 118.65 151.848C118.991 151.635 119.162 151.315 119.162 150.888C119.162 150.269 118.612 149.816 117.514 149.528C117.204 149.453 117.002 149.405 116.906 149.384C116.81 149.352 116.618 149.293 116.33 149.208C116.052 149.112 115.855 149.032 115.738 148.968C115.631 148.904 115.476 148.808 115.274 148.68C115.071 148.541 114.927 148.408 114.842 148.28C114.756 148.141 114.676 147.971 114.602 147.768C114.527 147.555 114.49 147.331 114.49 147.096C114.49 146.445 114.746 145.901 115.258 145.464C115.791 145.027 116.447 144.808 117.226 144.808C117.866 144.808 118.431 144.952 118.922 145.24C119.423 145.528 119.791 145.928 120.026 146.44L119.146 146.952C118.847 146.205 118.207 145.832 117.226 145.832C116.746 145.832 116.346 145.944 116.026 146.168C115.706 146.392 115.546 146.701 115.546 147.096ZM127.035 145V146.328C127.526 145.357 128.369 144.872 129.563 144.872V145.896C128.795 145.896 128.182 146.12 127.723 146.568C127.265 147.005 127.035 147.667 127.035 148.552V153H125.979V145H127.035ZM134.222 144.808C135.417 144.808 136.372 145.229 137.086 146.072C137.822 146.904 138.19 147.891 138.19 149.032C138.19 149.085 138.18 149.251 138.158 149.528H131.134C131.241 150.328 131.582 150.968 132.158 151.448C132.734 151.928 133.454 152.168 134.318 152.168C135.534 152.168 136.393 151.715 136.894 150.808L137.822 151.352C137.47 151.928 136.985 152.381 136.366 152.712C135.758 153.032 135.07 153.192 134.302 153.192C133.044 153.192 132.02 152.797 131.23 152.008C130.441 151.219 130.046 150.216 130.046 149C130.046 147.795 130.436 146.797 131.214 146.008C131.993 145.208 132.996 144.808 134.222 144.808ZM134.222 145.832C133.39 145.832 132.692 146.077 132.126 146.568C131.572 147.059 131.241 147.704 131.134 148.504H137.102C136.985 147.651 136.66 146.995 136.126 146.536C135.572 146.067 134.937 145.832 134.222 145.832ZM140.926 153H139.87V141.32H140.926V153ZM150.047 146.568V145H151.103V153H150.047V151.432C149.311 152.605 148.234 153.192 146.815 153.192C145.674 153.192 144.698 152.787 143.887 151.976C143.087 151.165 142.687 150.173 142.687 149C142.687 147.827 143.087 146.835 143.887 146.024C144.698 145.213 145.674 144.808 146.815 144.808C148.234 144.808 149.311 145.395 150.047 146.568ZM144.655 151.256C145.263 151.864 146.01 152.168 146.895 152.168C147.78 152.168 148.527 151.864 149.135 151.256C149.743 150.627 150.047 149.875 150.047 149C150.047 148.115 149.743 147.368 149.135 146.76C148.527 146.141 147.78 145.832 146.895 145.832C146.01 145.832 145.263 146.141 144.655 146.76C144.047 147.368 143.743 148.115 143.743 149C143.743 149.875 144.047 150.627 144.655 151.256ZM157.579 145V146.024H155.275V150.872C155.275 151.309 155.36 151.624 155.531 151.816C155.701 151.997 155.957 152.093 156.299 152.104C156.64 152.104 157.067 152.093 157.579 152.072V153C156.437 153.171 155.589 153.091 155.035 152.76C154.491 152.419 154.219 151.789 154.219 150.872V146.024H152.539V145H154.219V143.08L155.275 142.76V145H157.579ZM162.55 144.808C163.745 144.808 164.7 145.229 165.414 146.072C166.15 146.904 166.518 147.891 166.518 149.032C166.518 149.085 166.508 149.251 166.486 149.528H159.462C159.569 150.328 159.91 150.968 160.486 151.448C161.062 151.928 161.782 152.168 162.646 152.168C163.862 152.168 164.721 151.715 165.222 150.808L166.15 151.352C165.798 151.928 165.313 152.381 164.694 152.712C164.086 153.032 163.398 153.192 162.63 153.192C161.372 153.192 160.348 152.797 159.558 152.008C158.769 151.219 158.374 150.216 158.374 149C158.374 147.795 158.764 146.797 159.542 146.008C160.321 145.208 161.324 144.808 162.55 144.808ZM162.55 145.832C161.718 145.832 161.02 146.077 160.454 146.568C159.9 147.059 159.569 147.704 159.462 148.504H165.43C165.313 147.651 164.988 146.995 164.454 146.536C163.9 146.067 163.265 145.832 162.55 145.832ZM175.078 146.568V141.8H176.134V153H175.078V151.432C174.342 152.605 173.265 153.192 171.846 153.192C170.705 153.192 169.729 152.787 168.918 151.976C168.118 151.165 167.718 150.173 167.718 149C167.718 147.827 168.118 146.835 168.918 146.024C169.729 145.213 170.705 144.808 171.846 144.808C173.265 144.808 174.342 145.395 175.078 146.568ZM169.686 151.256C170.294 151.864 171.041 152.168 171.926 152.168C172.811 152.168 173.558 151.864 174.166 151.256C174.774 150.627 175.078 149.875 175.078 149C175.078 148.115 174.774 147.368 174.166 146.76C173.558 146.141 172.811 145.832 171.926 145.832C171.041 145.832 170.294 146.141 169.686 146.76C169.078 147.368 168.774 148.115 168.774 149C168.774 149.875 169.078 150.627 169.686 151.256ZM186.61 145V146.024H184.306V150.872C184.306 151.309 184.391 151.624 184.562 151.816C184.733 151.997 184.989 152.093 185.33 152.104C185.671 152.104 186.098 152.093 186.61 152.072V153C185.469 153.171 184.621 153.091 184.066 152.76C183.522 152.419 183.25 151.789 183.25 150.872V146.024H181.57V145H183.25V143.08L184.306 142.76V145H186.61ZM194.59 151.992C193.768 152.792 192.776 153.192 191.614 153.192C190.43 153.192 189.432 152.792 188.622 151.992C187.811 151.181 187.406 150.184 187.406 149C187.406 147.816 187.811 146.824 188.622 146.024C189.432 145.213 190.43 144.808 191.614 144.808C192.787 144.808 193.779 145.213 194.59 146.024C195.411 146.824 195.822 147.816 195.822 149C195.822 150.173 195.411 151.171 194.59 151.992ZM189.374 151.256C189.982 151.864 190.728 152.168 191.614 152.168C192.499 152.168 193.246 151.864 193.854 151.256C194.462 150.627 194.766 149.875 194.766 149C194.766 148.115 194.462 147.368 193.854 146.76C193.246 146.141 192.499 145.832 191.614 145.832C190.728 145.832 189.982 146.141 189.374 146.76C188.766 147.368 188.462 148.115 188.462 149C188.462 149.875 188.766 150.627 189.374 151.256ZM202.645 145V146.328C203.135 145.357 203.978 144.872 205.173 144.872V145.896C204.405 145.896 203.791 146.12 203.333 146.568C202.874 147.005 202.645 147.667 202.645 148.552V153H201.589V145H202.645ZM209.832 144.808C211.026 144.808 211.981 145.229 212.696 146.072C213.432 146.904 213.8 147.891 213.8 149.032C213.8 149.085 213.789 149.251 213.768 149.528H206.744C206.85 150.328 207.192 150.968 207.768 151.448C208.344 151.928 209.064 152.168 209.928 152.168C211.144 152.168 212.002 151.715 212.504 150.808L213.432 151.352C213.08 151.928 212.594 152.381 211.976 152.712C211.368 153.032 210.68 153.192 209.912 153.192C208.653 153.192 207.629 152.797 206.84 152.008C206.05 151.219 205.656 150.216 205.656 149C205.656 147.795 206.045 146.797 206.824 146.008C207.602 145.208 208.605 144.808 209.832 144.808ZM209.832 145.832C209 145.832 208.301 146.077 207.736 146.568C207.181 147.059 206.85 147.704 206.744 148.504H212.712C212.594 147.651 212.269 146.995 211.736 146.536C211.181 146.067 210.546 145.832 209.832 145.832ZM222.359 146.568V145H223.415V153H222.359V151.432C221.623 152.605 220.546 153.192 219.127 153.192C217.986 153.192 217.01 152.787 216.199 151.976C215.399 151.165 214.999 150.173 214.999 149C214.999 147.827 215.399 146.835 216.199 146.024C217.01 145.213 217.986 144.808 219.127 144.808C220.546 144.808 221.623 145.395 222.359 146.568ZM216.967 151.256C217.575 151.864 218.322 152.168 219.207 152.168C220.093 152.168 220.839 151.864 221.447 151.256C222.055 150.627 222.359 149.875 222.359 149C222.359 148.115 222.055 147.368 221.447 146.76C220.839 146.141 220.093 145.832 219.207 145.832C218.322 145.832 217.575 146.141 216.967 146.76C216.359 147.368 216.055 148.115 216.055 149C216.055 149.875 216.359 150.627 216.967 151.256ZM226.707 153H225.651V141.32H226.707V153ZM236.644 144.808C237.839 144.808 238.793 145.229 239.508 146.072C240.244 146.904 240.612 147.891 240.612 149.032C240.612 149.085 240.601 149.251 240.58 149.528H233.556C233.663 150.328 234.004 150.968 234.58 151.448C235.156 151.928 235.876 152.168 236.74 152.168C237.956 152.168 238.815 151.715 239.316 150.808L240.244 151.352C239.892 151.928 239.407 152.381 238.788 152.712C238.18 153.032 237.492 153.192 236.724 153.192C235.465 153.192 234.441 152.797 233.652 152.008C232.863 151.219 232.468 150.216 232.468 149C232.468 147.795 232.857 146.797 233.636 146.008C234.415 145.208 235.417 144.808 236.644 144.808ZM236.644 145.832C235.812 145.832 235.113 146.077 234.548 146.568C233.993 147.059 233.663 147.704 233.556 148.504H239.524C239.407 147.651 239.081 146.995 238.548 146.536C237.993 146.067 237.359 145.832 236.644 145.832ZM242.811 147.096C242.811 147.715 243.361 148.168 244.459 148.456C244.769 148.531 244.971 148.584 245.067 148.616C245.163 148.637 245.35 148.696 245.627 148.792C245.915 148.877 246.113 148.952 246.219 149.016C246.337 149.08 246.497 149.181 246.699 149.32C246.902 149.448 247.046 149.581 247.131 149.72C247.217 149.848 247.297 150.019 247.371 150.232C247.446 150.435 247.483 150.653 247.483 150.888C247.483 151.571 247.211 152.125 246.667 152.552C246.145 152.979 245.451 153.192 244.587 153.192C243.841 153.192 243.195 153.027 242.651 152.696C242.107 152.355 241.723 151.907 241.499 151.352L242.395 150.824C242.545 151.24 242.811 151.571 243.195 151.816C243.59 152.051 244.054 152.168 244.587 152.168C245.131 152.168 245.574 152.061 245.915 151.848C246.257 151.635 246.427 151.315 246.427 150.888C246.427 150.269 245.878 149.816 244.779 149.528C244.47 149.453 244.267 149.405 244.171 149.384C244.075 149.352 243.883 149.293 243.595 149.208C243.318 149.112 243.121 149.032 243.003 148.968C242.897 148.904 242.742 148.808 242.539 148.68C242.337 148.541 242.193 148.408 242.107 148.28C242.022 148.141 241.942 147.971 241.867 147.768C241.793 147.555 241.755 147.331 241.755 147.096C241.755 146.445 242.011 145.901 242.523 145.464C243.057 145.027 243.713 144.808 244.491 144.808C245.131 144.808 245.697 144.952 246.187 145.24C246.689 145.528 247.057 145.928 247.291 146.44L246.411 146.952C246.113 146.205 245.473 145.832 244.491 145.832C244.011 145.832 243.611 145.944 243.291 146.168C242.971 146.392 242.811 146.701 242.811 147.096ZM253.173 145V146.024H250.869V150.872C250.869 151.309 250.954 151.624 251.125 151.816C251.295 151.997 251.551 152.093 251.893 152.104C252.234 152.104 252.661 152.093 253.173 152.072V153C252.031 153.171 251.183 153.091 250.629 152.76C250.085 152.419 249.812 151.789 249.812 150.872V146.024H248.133V145H249.812V143.08L250.869 142.76V145H253.173ZM261.328 146.568V145H262.384V153H261.328V151.432C260.592 152.605 259.515 153.192 258.096 153.192C256.955 153.192 255.979 152.787 255.168 151.976C254.368 151.165 253.968 150.173 253.968 149C253.968 147.827 254.368 146.835 255.168 146.024C255.979 145.213 256.955 144.808 258.096 144.808C259.515 144.808 260.592 145.395 261.328 146.568ZM255.936 151.256C256.544 151.864 257.291 152.168 258.176 152.168C259.061 152.168 259.808 151.864 260.416 151.256C261.024 150.627 261.328 149.875 261.328 149C261.328 148.115 261.024 147.368 260.416 146.76C259.808 146.141 259.061 145.832 258.176 145.832C257.291 145.832 256.544 146.141 255.936 146.76C255.328 147.368 255.024 148.115 255.024 149C255.024 149.875 255.328 150.627 255.936 151.256ZM268.86 145V146.024H266.556V150.872C266.556 151.309 266.641 151.624 266.812 151.816C266.983 151.997 267.239 152.093 267.58 152.104C267.921 152.104 268.348 152.093 268.86 152.072V153C267.719 153.171 266.871 153.091 266.316 152.76C265.772 152.419 265.5 151.789 265.5 150.872V146.024H263.82V145H265.5V143.08L266.556 142.76V145H268.86ZM273.832 144.808C275.026 144.808 275.981 145.229 276.696 146.072C277.432 146.904 277.8 147.891 277.8 149.032C277.8 149.085 277.789 149.251 277.768 149.528H270.744C270.85 150.328 271.192 150.968 271.768 151.448C272.344 151.928 273.064 152.168 273.928 152.168C275.144 152.168 276.002 151.715 276.504 150.808L277.432 151.352C277.08 151.928 276.594 152.381 275.976 152.712C275.368 153.032 274.68 153.192 273.912 153.192C272.653 153.192 271.629 152.797 270.84 152.008C270.05 151.219 269.656 150.216 269.656 149C269.656 147.795 270.045 146.797 270.824 146.008C271.602 145.208 272.605 144.808 273.832 144.808ZM273.832 145.832C273 145.832 272.301 146.077 271.736 146.568C271.181 147.059 270.85 147.704 270.744 148.504H276.712C276.594 147.651 276.269 146.995 275.736 146.536C275.181 146.067 274.546 145.832 273.832 145.832ZM287.479 141.608V142.632C286.701 142.568 286.119 142.701 285.735 143.032C285.362 143.363 285.175 143.912 285.175 144.68V145H287.479V146.024H285.175V153H284.119V146.024H282.759V145H284.119V144.68C284.119 143.624 284.407 142.829 284.983 142.296C285.57 141.763 286.402 141.533 287.479 141.608ZM294.824 151.992C294.003 152.792 293.011 153.192 291.848 153.192C290.664 153.192 289.667 152.792 288.856 151.992C288.045 151.181 287.64 150.184 287.64 149C287.64 147.816 288.045 146.824 288.856 146.024C289.667 145.213 290.664 144.808 291.848 144.808C293.021 144.808 294.013 145.213 294.824 146.024C295.645 146.824 296.056 147.816 296.056 149C296.056 150.173 295.645 151.171 294.824 151.992ZM289.608 151.256C290.216 151.864 290.963 152.168 291.848 152.168C292.733 152.168 293.48 151.864 294.088 151.256C294.696 150.627 295 149.875 295 149C295 148.115 294.696 147.368 294.088 146.76C293.48 146.141 292.733 145.832 291.848 145.832C290.963 145.832 290.216 146.141 289.608 146.76C289 147.368 288.696 148.115 288.696 149C288.696 149.875 289 150.627 289.608 151.256ZM298.879 145V146.328C299.37 145.357 300.212 144.872 301.407 144.872V145.896C300.639 145.896 300.026 146.12 299.567 146.568C299.108 147.005 298.879 147.667 298.879 148.552V153H297.823V145H298.879ZM35.36 171V172.024H33.056V176.872C33.056 177.309 33.1413 177.624 33.312 177.816C33.4827 177.997 33.7387 178.093 34.08 178.104C34.4213 178.104 34.848 178.093 35.36 178.072V179C34.2187 179.171 33.3707 179.091 32.816 178.76C32.272 178.419 32 177.789 32 176.872V172.024H30.32V171H32V169.08L33.056 168.76V171H35.36ZM40.864 170.808C41.824 170.808 42.5867 171.107 43.152 171.704C43.7173 172.291 44 173.085 44 174.088V179H42.944V174.088C42.944 173.373 42.752 172.819 42.368 172.424C41.9947 172.029 41.4613 171.832 40.768 171.832C39.968 171.832 39.3333 172.083 38.864 172.584C38.4053 173.085 38.176 173.827 38.176 174.808V179H37.12V167.8H38.176V172.248C38.7733 171.288 39.6693 170.808 40.864 170.808ZM49.7379 170.808C50.9325 170.808 51.8872 171.229 52.6019 172.072C53.3379 172.904 53.7059 173.891 53.7059 175.032C53.7059 175.085 53.6952 175.251 53.6739 175.528H46.6499C46.7565 176.328 47.0979 176.968 47.6739 177.448C48.2499 177.928 48.9699 178.168 49.8339 178.168C51.0499 178.168 51.9085 177.715 52.4099 176.808L53.3379 177.352C52.9859 177.928 52.5005 178.381 51.8819 178.712C51.2739 179.032 50.5859 179.192 49.8179 179.192C48.5592 179.192 47.5352 178.797 46.7459 178.008C45.9565 177.219 45.5619 176.216 45.5619 175C45.5619 173.795 45.9512 172.797 46.7299 172.008C47.5085 171.208 48.5112 170.808 49.7379 170.808ZM49.7379 171.832C48.9059 171.832 48.2072 172.077 47.6419 172.568C47.0872 173.059 46.7565 173.704 46.6499 174.504H52.6179C52.5005 173.651 52.1752 172.995 51.6419 172.536C51.0872 172.067 50.4525 171.832 49.7379 171.832ZM61.0816 171H65.4016V179H64.3456V172.024H61.0816V179H60.0256V172.024H58.6656V171H60.0256V170.68C60.0256 168.632 61.1456 167.608 63.3856 167.608C63.8336 167.608 64.3456 167.672 64.9216 167.8V168.76C64.3883 168.675 63.8763 168.632 63.3856 168.632C62.575 168.632 61.9883 168.792 61.6256 169.112C61.263 169.421 61.0816 169.944 61.0816 170.68V171ZM68.6916 171V172.328C69.1823 171.357 70.025 170.872 71.2196 170.872V171.896C70.4516 171.896 69.8383 172.12 69.3796 172.568C68.921 173.005 68.6916 173.667 68.6916 174.552V179H67.6356V171H68.6916ZM73.1864 173.096C73.1864 173.715 73.7357 174.168 74.8344 174.456C75.1437 174.531 75.3464 174.584 75.4424 174.616C75.5384 174.637 75.725 174.696 76.0024 174.792C76.2904 174.877 76.4877 174.952 76.5944 175.016C76.7117 175.08 76.8717 175.181 77.0744 175.32C77.277 175.448 77.421 175.581 77.5064 175.72C77.5917 175.848 77.6717 176.019 77.7464 176.232C77.821 176.435 77.8584 176.653 77.8584 176.888C77.8584 177.571 77.5864 178.125 77.0424 178.552C76.5197 178.979 75.8264 179.192 74.9624 179.192C74.2157 179.192 73.5704 179.027 73.0264 178.696C72.4824 178.355 72.0984 177.907 71.8744 177.352L72.7704 176.824C72.9197 177.24 73.1864 177.571 73.5704 177.816C73.965 178.051 74.429 178.168 74.9624 178.168C75.5064 178.168 75.949 178.061 76.2904 177.848C76.6317 177.635 76.8024 177.315 76.8024 176.888C76.8024 176.269 76.253 175.816 75.1544 175.528C74.845 175.453 74.6424 175.405 74.5464 175.384C74.4504 175.352 74.2584 175.293 73.9704 175.208C73.693 175.112 73.4957 175.032 73.3784 174.968C73.2717 174.904 73.117 174.808 72.9144 174.68C72.7117 174.541 72.5677 174.408 72.4824 174.28C72.397 174.141 72.317 173.971 72.2424 173.768C72.1677 173.555 72.1304 173.331 72.1304 173.096C72.1304 172.445 72.3864 171.901 72.8984 171.464C73.4317 171.027 74.0877 170.808 74.8664 170.808C75.5064 170.808 76.0717 170.952 76.5624 171.24C77.0637 171.528 77.4317 171.928 77.6664 172.44L76.7864 172.952C76.4877 172.205 75.8477 171.832 74.8664 171.832C74.3864 171.832 73.9864 171.944 73.6664 172.168C73.3464 172.392 73.1864 172.701 73.1864 173.096ZM83.5475 171V172.024H81.2435V176.872C81.2435 177.309 81.3288 177.624 81.4995 177.816C81.6702 177.997 81.9262 178.093 82.2675 178.104C82.6088 178.104 83.0355 178.093 83.5475 178.072V179C82.4062 179.171 81.5582 179.091 81.0035 178.76C80.4595 178.419 80.1875 177.789 80.1875 176.872V172.024H78.5075V171H80.1875V169.08L81.2435 168.76V171H83.5475ZM96.1875 172.568V171H97.2435V182.2H96.1875V177.432C95.4515 178.605 94.3742 179.192 92.9555 179.192C91.8142 179.192 90.8382 178.787 90.0275 177.976C89.2275 177.165 88.8275 176.173 88.8275 175C88.8275 173.827 89.2275 172.835 90.0275 172.024C90.8382 171.213 91.8142 170.808 92.9555 170.808C94.3742 170.808 95.4515 171.395 96.1875 172.568ZM90.7955 177.256C91.4035 177.864 92.1502 178.168 93.0355 178.168C93.9208 178.168 94.6675 177.864 95.2755 177.256C95.8835 176.627 96.1875 175.875 96.1875 175C96.1875 174.115 95.8835 173.368 95.2755 172.76C94.6675 172.141 93.9208 171.832 93.0355 171.832C92.1502 171.832 91.4035 172.141 90.7955 172.76C90.1875 173.368 89.8835 174.115 89.8835 175C89.8835 175.875 90.1875 176.627 90.7955 177.256ZM105.111 175.192V171H106.167V179H105.111V177.752C104.514 178.712 103.618 179.192 102.423 179.192C101.463 179.192 100.701 178.899 100.135 178.312C99.57 177.715 99.2874 176.915 99.2874 175.912V171H100.343V175.912C100.343 176.627 100.53 177.181 100.903 177.576C101.287 177.971 101.826 178.168 102.519 178.168C103.319 178.168 103.949 177.917 104.407 177.416C104.877 176.915 105.111 176.173 105.111 175.192ZM115.281 172.568V171H116.337V179H115.281V177.432C114.545 178.605 113.468 179.192 112.049 179.192C110.908 179.192 109.932 178.787 109.121 177.976C108.321 177.165 107.921 176.173 107.921 175C107.921 173.827 108.321 172.835 109.121 172.024C109.932 171.213 110.908 170.808 112.049 170.808C113.468 170.808 114.545 171.395 115.281 172.568ZM109.889 177.256C110.497 177.864 111.244 178.168 112.129 178.168C113.015 178.168 113.761 177.864 114.369 177.256C114.977 176.627 115.281 175.875 115.281 175C115.281 174.115 114.977 173.368 114.369 172.76C113.761 172.141 113.015 171.832 112.129 171.832C111.244 171.832 110.497 172.141 109.889 172.76C109.281 173.368 108.977 174.115 108.977 175C108.977 175.875 109.281 176.627 109.889 177.256ZM119.629 171V172.328C120.12 171.357 120.962 170.872 122.157 170.872V171.896C121.389 171.896 120.776 172.12 120.317 172.568C119.858 173.005 119.629 173.667 119.629 174.552V179H118.573V171H119.629ZM128.001 171V172.024H125.697V176.872C125.697 177.309 125.782 177.624 125.953 177.816C126.123 177.997 126.379 178.093 126.721 178.104C127.062 178.104 127.489 178.093 128.001 178.072V179C126.859 179.171 126.011 179.091 125.457 178.76C124.913 178.419 124.641 177.789 124.641 176.872V172.024H122.961V171H124.641V169.08L125.697 168.76V171H128.001ZM132.972 170.808C134.167 170.808 135.122 171.229 135.836 172.072C136.572 172.904 136.94 173.891 136.94 175.032C136.94 175.085 136.93 175.251 136.908 175.528H129.884C129.991 176.328 130.332 176.968 130.908 177.448C131.484 177.928 132.204 178.168 133.068 178.168C134.284 178.168 135.143 177.715 135.644 176.808L136.572 177.352C136.22 177.928 135.735 178.381 135.116 178.712C134.508 179.032 133.82 179.192 133.052 179.192C131.794 179.192 130.77 178.797 129.98 178.008C129.191 177.219 128.796 176.216 128.796 175C128.796 173.795 129.186 172.797 129.964 172.008C130.743 171.208 131.746 170.808 132.972 170.808ZM132.972 171.832C132.14 171.832 131.442 172.077 130.876 172.568C130.322 173.059 129.991 173.704 129.884 174.504H135.852C135.735 173.651 135.41 172.995 134.876 172.536C134.322 172.067 133.687 171.832 132.972 171.832ZM139.676 171V172.328C140.167 171.357 141.009 170.872 142.204 170.872V171.896C141.436 171.896 140.823 172.12 140.364 172.568C139.905 173.005 139.676 173.667 139.676 174.552V179H138.62V171H139.676ZM151.395 170.808C152.355 170.808 153.118 171.107 153.683 171.704C154.249 172.291 154.531 173.085 154.531 174.088V179H153.475V174.088C153.475 173.373 153.283 172.819 152.899 172.424C152.526 172.029 151.993 171.832 151.299 171.832C150.499 171.832 149.865 172.083 149.395 172.584C148.937 173.085 148.707 173.827 148.707 174.808V179H147.651V167.8H148.707V172.248C149.305 171.288 150.201 170.808 151.395 170.808ZM163.453 172.568V171H164.509V179H163.453V177.432C162.717 178.605 161.64 179.192 160.221 179.192C159.08 179.192 158.104 178.787 157.293 177.976C156.493 177.165 156.093 176.173 156.093 175C156.093 173.827 156.493 172.835 157.293 172.024C158.104 171.213 159.08 170.808 160.221 170.808C161.64 170.808 162.717 171.395 163.453 172.568ZM158.061 177.256C158.669 177.864 159.416 178.168 160.301 178.168C161.186 178.168 161.933 177.864 162.541 177.256C163.149 176.627 163.453 175.875 163.453 175C163.453 174.115 163.149 173.368 162.541 172.76C161.933 172.141 161.186 171.832 160.301 171.832C159.416 171.832 158.669 172.141 158.061 172.76C157.453 173.368 157.149 174.115 157.149 175C157.149 175.875 157.453 176.627 158.061 177.256ZM167.577 173.096C167.577 173.715 168.126 174.168 169.225 174.456C169.534 174.531 169.737 174.584 169.833 174.616C169.929 174.637 170.116 174.696 170.393 174.792C170.681 174.877 170.878 174.952 170.985 175.016C171.102 175.08 171.262 175.181 171.465 175.32C171.668 175.448 171.812 175.581 171.897 175.72C171.982 175.848 172.062 176.019 172.137 176.232C172.212 176.435 172.249 176.653 172.249 176.888C172.249 177.571 171.977 178.125 171.433 178.552C170.91 178.979 170.217 179.192 169.353 179.192C168.606 179.192 167.961 179.027 167.417 178.696C166.873 178.355 166.489 177.907 166.265 177.352L167.161 176.824C167.31 177.24 167.577 177.571 167.961 177.816C168.356 178.051 168.82 178.168 169.353 178.168C169.897 178.168 170.34 178.061 170.681 177.848C171.022 177.635 171.193 177.315 171.193 176.888C171.193 176.269 170.644 175.816 169.545 175.528C169.236 175.453 169.033 175.405 168.937 175.384C168.841 175.352 168.649 175.293 168.361 175.208C168.084 175.112 167.886 175.032 167.769 174.968C167.662 174.904 167.508 174.808 167.305 174.68C167.102 174.541 166.958 174.408 166.873 174.28C166.788 174.141 166.708 173.971 166.633 173.768C166.558 173.555 166.521 173.331 166.521 173.096C166.521 172.445 166.777 171.901 167.289 171.464C167.822 171.027 168.478 170.808 169.257 170.808C169.897 170.808 170.462 170.952 170.953 171.24C171.454 171.528 171.822 171.928 172.057 172.44L171.177 172.952C170.878 172.205 170.238 171.832 169.257 171.832C168.777 171.832 168.377 171.944 168.057 172.168C167.737 172.392 167.577 172.701 167.577 173.096ZM182.299 170.808C183.44 170.808 184.411 171.213 185.211 172.024C186.021 172.835 186.427 173.827 186.427 175C186.427 176.173 186.021 177.165 185.211 177.976C184.411 178.787 183.44 179.192 182.299 179.192C180.88 179.192 179.803 178.605 179.067 177.432V179H178.011V167.8H179.067V172.568C179.803 171.395 180.88 170.808 182.299 170.808ZM179.979 177.256C180.587 177.864 181.333 178.168 182.219 178.168C183.104 178.168 183.851 177.864 184.459 177.256C185.067 176.627 185.371 175.875 185.371 175C185.371 174.115 185.067 173.368 184.459 172.76C183.851 172.141 183.104 171.832 182.219 171.832C181.333 171.832 180.587 172.141 179.979 172.76C179.371 173.368 179.067 174.115 179.067 175C179.067 175.875 179.371 176.627 179.979 177.256ZM191.879 170.808C193.073 170.808 194.028 171.229 194.743 172.072C195.479 172.904 195.847 173.891 195.847 175.032C195.847 175.085 195.836 175.251 195.815 175.528H188.791C188.897 176.328 189.239 176.968 189.815 177.448C190.391 177.928 191.111 178.168 191.975 178.168C193.191 178.168 194.049 177.715 194.551 176.808L195.479 177.352C195.127 177.928 194.641 178.381 194.023 178.712C193.415 179.032 192.727 179.192 191.959 179.192C190.7 179.192 189.676 178.797 188.887 178.008C188.097 177.219 187.703 176.216 187.703 175C187.703 173.795 188.092 172.797 188.871 172.008C189.649 171.208 190.652 170.808 191.879 170.808ZM191.879 171.832C191.047 171.832 190.348 172.077 189.783 172.568C189.228 173.059 188.897 173.704 188.791 174.504H194.759C194.641 173.651 194.316 172.995 193.783 172.536C193.228 172.067 192.593 171.832 191.879 171.832ZM201.222 170.808C202.417 170.808 203.372 171.229 204.086 172.072C204.822 172.904 205.19 173.891 205.19 175.032C205.19 175.085 205.18 175.251 205.158 175.528H198.134C198.241 176.328 198.582 176.968 199.158 177.448C199.734 177.928 200.454 178.168 201.318 178.168C202.534 178.168 203.393 177.715 203.894 176.808L204.822 177.352C204.47 177.928 203.985 178.381 203.366 178.712C202.758 179.032 202.07 179.192 201.302 179.192C200.044 179.192 199.02 178.797 198.23 178.008C197.441 177.219 197.046 176.216 197.046 175C197.046 173.795 197.436 172.797 198.214 172.008C198.993 171.208 199.996 170.808 201.222 170.808ZM201.222 171.832C200.39 171.832 199.692 172.077 199.126 172.568C198.572 173.059 198.241 173.704 198.134 174.504H204.102C203.985 173.651 203.66 172.995 203.126 172.536C202.572 172.067 201.937 171.832 201.222 171.832ZM210.614 170.808C211.574 170.808 212.337 171.107 212.902 171.704C213.467 172.291 213.75 173.085 213.75 174.088V179H212.694V174.088C212.694 173.373 212.502 172.819 212.118 172.424C211.745 172.029 211.211 171.832 210.518 171.832C209.718 171.832 209.083 172.083 208.614 172.584C208.155 173.085 207.926 173.827 207.926 174.808V179H206.87V171H207.926V172.248C208.523 171.288 209.419 170.808 210.614 170.808ZM223.52 179.192C222.315 179.192 221.312 178.792 220.512 177.992C219.712 177.171 219.312 176.173 219.312 175C219.312 173.816 219.712 172.824 220.512 172.024C221.312 171.213 222.315 170.808 223.52 170.808C224.309 170.808 225.019 171 225.648 171.384C226.277 171.757 226.736 172.264 227.024 172.904L226.16 173.4C225.947 172.92 225.6 172.541 225.12 172.264C224.651 171.976 224.117 171.832 223.52 171.832C222.635 171.832 221.888 172.141 221.28 172.76C220.672 173.368 220.368 174.115 220.368 175C220.368 175.875 220.672 176.627 221.28 177.256C221.888 177.864 222.635 178.168 223.52 178.168C224.107 178.168 224.635 178.029 225.104 177.752C225.584 177.475 225.957 177.091 226.224 176.6L227.104 177.112C226.773 177.752 226.288 178.259 225.648 178.632C225.008 179.005 224.299 179.192 223.52 179.192ZM235.246 177.992C234.425 178.792 233.433 179.192 232.27 179.192C231.086 179.192 230.089 178.792 229.278 177.992C228.467 177.181 228.062 176.184 228.062 175C228.062 173.816 228.467 172.824 229.278 172.024C230.089 171.213 231.086 170.808 232.27 170.808C233.443 170.808 234.435 171.213 235.246 172.024C236.067 172.824 236.478 173.816 236.478 175C236.478 176.173 236.067 177.171 235.246 177.992ZM230.03 177.256C230.638 177.864 231.385 178.168 232.27 178.168C233.155 178.168 233.902 177.864 234.51 177.256C235.118 176.627 235.422 175.875 235.422 175C235.422 174.115 235.118 173.368 234.51 172.76C233.902 172.141 233.155 171.832 232.27 171.832C231.385 171.832 230.638 172.141 230.03 172.76C229.422 173.368 229.118 174.115 229.118 175C229.118 175.875 229.422 176.627 230.03 177.256ZM241.989 170.808C242.949 170.808 243.712 171.107 244.277 171.704C244.842 172.291 245.125 173.085 245.125 174.088V179H244.069V174.088C244.069 173.373 243.877 172.819 243.493 172.424C243.12 172.029 242.586 171.832 241.893 171.832C241.093 171.832 240.458 172.083 239.989 172.584C239.53 173.085 239.301 173.827 239.301 174.808V179H238.245V171H239.301V172.248C239.898 171.288 240.794 170.808 241.989 170.808ZM248.863 171H253.183V179H252.127V172.024H248.863V179H247.807V172.024H246.447V171H247.807V170.68C247.807 168.632 248.927 167.608 251.167 167.608C251.615 167.608 252.127 167.672 252.703 167.8V168.76C252.17 168.675 251.658 168.632 251.167 168.632C250.356 168.632 249.77 168.792 249.407 169.112C249.044 169.421 248.863 169.944 248.863 170.68V171ZM256.473 171V172.328C256.964 171.357 257.806 170.872 259.001 170.872V171.896C258.233 171.896 257.62 172.12 257.161 172.568C256.702 173.005 256.473 173.667 256.473 174.552V179H255.417V171H256.473ZM268.976 170.808C269.883 170.808 270.608 171.096 271.152 171.672C271.696 172.248 271.968 173.027 271.968 174.008V179H270.912V174.008C270.912 173.325 270.736 172.792 270.384 172.408C270.032 172.024 269.557 171.832 268.96 171.832C268.267 171.832 267.723 172.061 267.328 172.52C266.933 172.979 266.736 173.661 266.736 174.568V179H265.68V174.008C265.68 173.315 265.515 172.781 265.184 172.408C264.853 172.024 264.395 171.832 263.808 171.832C263.136 171.832 262.581 172.067 262.144 172.536C261.717 173.005 261.504 173.683 261.504 174.568V179H260.448V171H261.504V172.168C262.08 171.261 262.896 170.808 263.952 170.808C265.115 170.808 265.925 171.293 266.384 172.264C266.96 171.293 267.824 170.808 268.976 170.808ZM277.707 170.808C278.901 170.808 279.856 171.229 280.571 172.072C281.307 172.904 281.675 173.891 281.675 175.032C281.675 175.085 281.664 175.251 281.643 175.528H274.619C274.725 176.328 275.067 176.968 275.643 177.448C276.219 177.928 276.939 178.168 277.803 178.168C279.019 178.168 279.877 177.715 280.379 176.808L281.307 177.352C280.955 177.928 280.469 178.381 279.851 178.712C279.243 179.032 278.555 179.192 277.787 179.192C276.528 179.192 275.504 178.797 274.715 178.008C273.925 177.219 273.531 176.216 273.531 175C273.531 173.795 273.92 172.797 274.699 172.008C275.477 171.208 276.48 170.808 277.707 170.808ZM277.707 171.832C276.875 171.832 276.176 172.077 275.611 172.568C275.056 173.059 274.725 173.704 274.619 174.504H280.587C280.469 173.651 280.144 172.995 279.611 172.536C279.056 172.067 278.421 171.832 277.707 171.832ZM290.234 172.568V167.8H291.29V179H290.234V177.432C289.498 178.605 288.421 179.192 287.002 179.192C285.861 179.192 284.885 178.787 284.074 177.976C283.274 177.165 282.874 176.173 282.874 175C282.874 173.827 283.274 172.835 284.074 172.024C284.885 171.213 285.861 170.808 287.002 170.808C288.421 170.808 289.498 171.395 290.234 172.568ZM284.842 177.256C285.45 177.864 286.197 178.168 287.082 178.168C287.968 178.168 288.714 177.864 289.322 177.256C289.93 176.627 290.234 175.875 290.234 175C290.234 174.115 289.93 173.368 289.322 172.76C288.714 172.141 287.968 171.832 287.082 171.832C286.197 171.832 285.45 172.141 284.842 172.76C284.234 173.368 283.93 174.115 283.93 175C283.93 175.875 284.234 176.627 284.842 177.256ZM299.126 178.28C299.126 178.525 299.041 178.733 298.87 178.904C298.7 179.075 298.492 179.16 298.246 179.16C298.001 179.16 297.793 179.075 297.622 178.904C297.452 178.733 297.366 178.525 297.366 178.28C297.366 178.035 297.452 177.827 297.622 177.656C297.793 177.485 298.001 177.4 298.246 177.4C298.492 177.4 298.7 177.485 298.87 177.656C299.041 177.827 299.126 178.035 299.126 178.28ZM302.814 178.28C302.814 178.525 302.728 178.733 302.558 178.904C302.387 179.075 302.179 179.16 301.934 179.16C301.688 179.16 301.48 179.075 301.31 178.904C301.139 178.733 301.054 178.525 301.054 178.28C301.054 178.035 301.139 177.827 301.31 177.656C301.48 177.485 301.688 177.4 301.934 177.4C302.179 177.4 302.387 177.485 302.558 177.656C302.728 177.827 302.814 178.035 302.814 178.28ZM306.501 178.28C306.501 178.525 306.416 178.733 306.245 178.904C306.075 179.075 305.867 179.16 305.621 179.16C305.376 179.16 305.168 179.075 304.997 178.904C304.827 178.733 304.741 178.525 304.741 178.28C304.741 178.035 304.827 177.827 304.997 177.656C305.168 177.485 305.376 177.4 305.621 177.4C305.867 177.4 306.075 177.485 306.245 177.656C306.416 177.827 306.501 178.035 306.501 178.28Z" fill="#929292"/>
<path d="M33.584 216.224H39.152V218H31.376V207.44H33.584V216.224ZM44.3328 218.16C43.4901 218.16 42.7541 217.995 42.1248 217.664C41.5061 217.333 41.0261 216.859 40.6848 216.24C40.3434 215.621 40.1728 214.875 40.1728 214C40.1728 213.125 40.3434 212.379 40.6848 211.76C41.0261 211.141 41.5008 210.667 42.1088 210.336C42.7274 210.005 43.4314 209.84 44.2208 209.84C45.0314 209.84 45.7194 210.005 46.2848 210.336C46.8501 210.656 47.2821 211.099 47.5808 211.664C47.8794 212.219 48.0288 212.853 48.0288 213.568C48.0288 213.781 48.0234 213.984 48.0128 214.176C48.0021 214.368 47.9861 214.539 47.9648 214.688H41.5807V213.168H47.0048L45.9488 213.552C45.9488 212.88 45.7941 212.363 45.4848 212C45.1861 211.637 44.7594 211.456 44.2048 211.456C43.7994 211.456 43.4474 211.552 43.1488 211.744C42.8608 211.936 42.6421 212.224 42.4928 212.608C42.3434 212.981 42.2688 213.456 42.2688 214.032C42.2688 214.597 42.3488 215.067 42.5088 215.44C42.6794 215.803 42.9141 216.075 43.2128 216.256C43.5221 216.437 43.8901 216.528 44.3168 216.528C44.7861 216.528 45.1648 216.437 45.4528 216.256C45.7408 216.075 45.9648 215.824 46.1248 215.504L47.8688 216.176C47.6981 216.592 47.4368 216.949 47.0848 217.248C46.7434 217.547 46.3328 217.776 45.8528 217.936C45.3834 218.085 44.8768 218.16 44.3328 218.16ZM54.4464 212.896C54.4464 212.437 54.313 212.08 54.0464 211.824C53.7904 211.568 53.449 211.44 53.0224 211.44C52.6277 211.44 52.281 211.541 51.9824 211.744C51.6837 211.947 51.465 212.283 51.3264 212.752L49.4544 212.176C49.6357 211.472 50.0304 210.907 50.6384 210.48C51.257 210.053 52.0837 209.84 53.1184 209.84C53.8224 209.84 54.4357 209.952 54.9584 210.176C55.481 210.389 55.8864 210.715 56.1744 211.152C56.473 211.589 56.6224 212.139 56.6224 212.8V216.048C56.6224 216.453 56.8144 216.656 57.1984 216.656C57.3797 216.656 57.5504 216.629 57.7104 216.576L57.5824 217.936C57.305 218.075 56.9584 218.144 56.5424 218.144C56.169 218.144 55.833 218.08 55.5344 217.952C55.2357 217.824 55.001 217.632 54.8304 217.376C54.6597 217.109 54.5744 216.779 54.5744 216.384V216.32L54.9584 216.256C54.8944 216.661 54.7184 217.008 54.4304 217.296C54.1424 217.573 53.7904 217.787 53.3744 217.936C52.969 218.085 52.5477 218.16 52.1104 218.16C51.5664 218.16 51.097 218.08 50.7024 217.92C50.3077 217.749 50.0037 217.504 49.7904 217.184C49.577 216.864 49.4704 216.469 49.4704 216C49.4704 215.403 49.6624 214.917 50.0464 214.544C50.4304 214.16 50.9797 213.899 51.6944 213.76L54.7024 213.152L54.6864 214.512L52.7664 214.896C52.4037 214.971 52.1264 215.072 51.9344 215.2C51.753 215.317 51.6624 215.515 51.6624 215.792C51.6624 216.059 51.7584 216.261 51.9504 216.4C52.153 216.539 52.393 216.608 52.6704 216.608C52.8944 216.608 53.113 216.581 53.3264 216.528C53.5397 216.475 53.7317 216.389 53.9024 216.272C54.073 216.155 54.2064 215.995 54.3024 215.792C54.3984 215.589 54.4464 215.344 54.4464 215.056V212.896ZM59.0739 218V210H60.9779L61.1219 211.568C61.3352 211.013 61.6445 210.587 62.0499 210.288C62.4659 209.989 62.9832 209.84 63.6019 209.84C63.7832 209.84 63.9485 209.856 64.0979 209.888C64.2472 209.92 64.3699 209.963 64.4659 210.016L64.2099 211.856C64.1032 211.813 63.9699 211.781 63.8099 211.76C63.6605 211.739 63.4632 211.728 63.2179 211.728C62.8979 211.728 62.5885 211.808 62.2899 211.968C61.9912 212.117 61.7459 212.352 61.5539 212.672C61.3619 212.981 61.2659 213.376 61.2659 213.856V218H59.0739ZM65.8239 218V210H67.7919L67.9199 212.4L67.6479 212.144C67.7759 211.621 67.9785 211.189 68.2559 210.848C68.5332 210.507 68.8692 210.256 69.2639 210.096C69.6692 209.925 70.1119 209.84 70.5919 209.84C71.1465 209.84 71.6372 209.947 72.0639 210.16C72.5012 210.373 72.8425 210.699 73.0879 211.136C73.3439 211.563 73.4719 212.101 73.4719 212.752V218H71.2799V213.376C71.2799 212.693 71.1465 212.224 70.8799 211.968C70.6132 211.701 70.2665 211.568 69.8399 211.568C69.5412 211.568 69.2479 211.643 68.9599 211.792C68.6825 211.931 68.4532 212.16 68.2719 212.48C68.1012 212.8 68.0159 213.227 68.0159 213.76V218H65.8239ZM80.6208 218V210H82.5888L82.6688 211.44C82.9354 210.907 83.2981 210.507 83.7568 210.24C84.2261 209.973 84.7434 209.84 85.3088 209.84C85.8848 209.84 86.4021 209.973 86.8608 210.24C87.3301 210.507 87.6821 210.901 87.9167 211.424C88.0874 211.072 88.3168 210.779 88.6048 210.544C88.8928 210.309 89.2128 210.133 89.5648 210.016C89.9168 209.899 90.2741 209.84 90.6368 209.84C91.1594 209.84 91.6341 209.947 92.0608 210.16C92.4981 210.373 92.8448 210.693 93.1008 211.12C93.3568 211.547 93.4848 212.091 93.4848 212.752V218H91.2928V213.184C91.2928 212.597 91.1648 212.181 90.9088 211.936C90.6528 211.691 90.3221 211.568 89.9168 211.568C89.5968 211.568 89.2981 211.648 89.0208 211.808C88.7541 211.968 88.5408 212.208 88.3808 212.528C88.2314 212.837 88.1568 213.227 88.1568 213.696V218H85.9648V213.184C85.9648 212.597 85.8314 212.181 85.5648 211.936C85.3088 211.691 84.9781 211.568 84.5728 211.568C84.2954 211.568 84.0181 211.643 83.7408 211.792C83.4741 211.941 83.2501 212.176 83.0688 212.496C82.8981 212.816 82.8128 213.237 82.8128 213.76V218H80.6208ZM99.3938 209.84C100.204 209.84 100.914 210.005 101.522 210.336C102.14 210.667 102.62 211.141 102.962 211.76C103.314 212.379 103.49 213.125 103.49 214C103.49 214.864 103.314 215.611 102.962 216.24C102.62 216.859 102.14 217.333 101.522 217.664C100.914 217.995 100.204 218.16 99.3938 218.16C98.5938 218.16 97.8844 217.995 97.2658 217.664C96.6471 217.333 96.1618 216.859 95.8098 216.24C95.4684 215.611 95.2978 214.864 95.2978 214C95.2978 213.125 95.4684 212.379 95.8098 211.76C96.1618 211.141 96.6471 210.667 97.2658 210.336C97.8844 210.005 98.5938 209.84 99.3938 209.84ZM99.3938 211.472C98.9884 211.472 98.6418 211.568 98.3538 211.76C98.0764 211.941 97.8631 212.219 97.7138 212.592C97.5644 212.965 97.4898 213.435 97.4898 214C97.4898 214.565 97.5644 215.035 97.7138 215.408C97.8631 215.781 98.0764 216.064 98.3538 216.256C98.6418 216.437 98.9884 216.528 99.3938 216.528C99.7884 216.528 100.124 216.437 100.402 216.256C100.69 216.064 100.908 215.781 101.058 215.408C101.207 215.035 101.282 214.565 101.282 214C101.282 213.435 101.207 212.965 101.058 212.592C100.908 212.219 100.69 211.941 100.402 211.76C100.124 211.568 99.7884 211.472 99.3938 211.472ZM105.324 218V210H107.228L107.372 211.568C107.585 211.013 107.895 210.587 108.3 210.288C108.716 209.989 109.233 209.84 109.852 209.84C110.033 209.84 110.199 209.856 110.348 209.888C110.497 209.92 110.62 209.963 110.716 210.016L110.46 211.856C110.353 211.813 110.22 211.781 110.06 211.76C109.911 211.739 109.713 211.728 109.468 211.728C109.148 211.728 108.839 211.808 108.54 211.968C108.241 212.117 107.996 212.352 107.804 212.672C107.612 212.981 107.516 213.376 107.516 213.856V218H105.324ZM115.63 218.16C114.787 218.16 114.051 217.995 113.422 217.664C112.803 217.333 112.323 216.859 111.982 216.24C111.64 215.621 111.47 214.875 111.47 214C111.47 213.125 111.64 212.379 111.982 211.76C112.323 211.141 112.798 210.667 113.406 210.336C114.024 210.005 114.728 209.84 115.518 209.84C116.328 209.84 117.016 210.005 117.582 210.336C118.147 210.656 118.579 211.099 118.878 211.664C119.176 212.219 119.326 212.853 119.326 213.568C119.326 213.781 119.32 213.984 119.31 214.176C119.299 214.368 119.283 214.539 119.262 214.688H112.878V213.168H118.302L117.246 213.552C117.246 212.88 117.091 212.363 116.782 212C116.483 211.637 116.056 211.456 115.502 211.456C115.096 211.456 114.744 211.552 114.446 211.744C114.158 211.936 113.939 212.224 113.79 212.608C113.64 212.981 113.566 213.456 113.566 214.032C113.566 214.597 113.646 215.067 113.806 215.44C113.976 215.803 114.211 216.075 114.51 216.256C114.819 216.437 115.187 216.528 115.614 216.528C116.083 216.528 116.462 216.437 116.75 216.256C117.038 216.075 117.262 215.824 117.422 215.504L119.166 216.176C118.995 216.592 118.734 216.949 118.382 217.248C118.04 217.547 117.63 217.776 117.15 217.936C116.68 218.085 116.174 218.16 115.63 218.16Z" fill="white"/>
<path d="M151.322 213.023L140 202.999" stroke="white"/>
<path d="M140 223.023L151.322 212.999" stroke="white"/>
</svg>
